<mxfile host="app.diagrams.net" modified="2023-11-11T21:39:12.763Z" agent="Mozilla/5.0 (X11; Linux x86_64) AppleWebKit/537.36 (KHTML, like Gecko) Chrome/118.0.0.0 Safari/537.36" etag="0mbMWAPjDa8bYGMXS1Lh" version="22.1.0" type="github">
  <diagram name="Page-1" id="RZ3mvIcXp96CpsJ0dC8F">
    <mxGraphModel dx="1654" dy="775" grid="1" gridSize="10" guides="1" tooltips="1" connect="1" arrows="1" fold="1" page="1" pageScale="1" pageWidth="850" pageHeight="1100" math="0" shadow="0">
      <root>
        <mxCell id="0" />
        <mxCell id="1" parent="0" />
        <mxCell id="xkJ3XI0sNzHQG6LdifNl-7" style="rounded=1;orthogonalLoop=1;jettySize=auto;html=1;exitX=1;exitY=0.75;exitDx=0;exitDy=0;entryX=0;entryY=0.75;entryDx=0;entryDy=0;strokeColor=#E07A5F;fontColor=#393C56;fillColor=#F2CC8F;" edge="1" parent="1" source="xkJ3XI0sNzHQG6LdifNl-1" target="xkJ3XI0sNzHQG6LdifNl-3">
          <mxGeometry relative="1" as="geometry" />
        </mxCell>
        <mxCell id="xkJ3XI0sNzHQG6LdifNl-11" value="Key Check Response" style="edgeLabel;html=1;align=center;verticalAlign=middle;resizable=0;points=[];fontColor=#393C56;" vertex="1" connectable="0" parent="xkJ3XI0sNzHQG6LdifNl-7">
          <mxGeometry x="-0.1069" y="-2" relative="1" as="geometry">
            <mxPoint as="offset" />
          </mxGeometry>
        </mxCell>
        <mxCell id="xkJ3XI0sNzHQG6LdifNl-9" style="rounded=1;orthogonalLoop=1;jettySize=auto;html=1;exitX=0;exitY=0.75;exitDx=0;exitDy=0;entryX=1;entryY=0.75;entryDx=0;entryDy=0;strokeColor=#E07A5F;fontColor=#393C56;fillColor=#F2CC8F;" edge="1" parent="1" source="xkJ3XI0sNzHQG6LdifNl-1" target="xkJ3XI0sNzHQG6LdifNl-4">
          <mxGeometry relative="1" as="geometry" />
        </mxCell>
        <mxCell id="xkJ3XI0sNzHQG6LdifNl-15" value="View Organizations" style="edgeLabel;html=1;align=center;verticalAlign=middle;resizable=0;points=[];fontColor=#393C56;" vertex="1" connectable="0" parent="xkJ3XI0sNzHQG6LdifNl-9">
          <mxGeometry x="0.0536" y="-2" relative="1" as="geometry">
            <mxPoint as="offset" />
          </mxGeometry>
        </mxCell>
        <mxCell id="xkJ3XI0sNzHQG6LdifNl-20" style="edgeStyle=orthogonalEdgeStyle;rounded=1;orthogonalLoop=1;jettySize=auto;html=1;exitX=1;exitY=1;exitDx=0;exitDy=0;entryX=0;entryY=1;entryDx=0;entryDy=0;strokeColor=#E07A5F;fontColor=#393C56;fillColor=#F2CC8F;" edge="1" parent="1" source="xkJ3XI0sNzHQG6LdifNl-1" target="xkJ3XI0sNzHQG6LdifNl-3">
          <mxGeometry relative="1" as="geometry" />
        </mxCell>
        <mxCell id="xkJ3XI0sNzHQG6LdifNl-21" value="Player Data" style="edgeLabel;html=1;align=center;verticalAlign=middle;resizable=0;points=[];fontColor=#393C56;" vertex="1" connectable="0" parent="xkJ3XI0sNzHQG6LdifNl-20">
          <mxGeometry x="-0.0734" y="-3" relative="1" as="geometry">
            <mxPoint y="-3" as="offset" />
          </mxGeometry>
        </mxCell>
        <mxCell id="xkJ3XI0sNzHQG6LdifNl-1" value="0" style="swimlane;fontStyle=0;childLayout=stackLayout;horizontal=1;startSize=20;fillColor=#F2CC8F;horizontalStack=0;resizeParent=1;resizeParentMax=0;resizeLast=0;collapsible=0;marginBottom=0;swimlaneFillColor=#ffffff;labelBackgroundColor=none;strokeColor=#E07A5F;fontColor=#393C56;rounded=1;" vertex="1" parent="1">
          <mxGeometry x="372" y="294.94" width="100" height="80" as="geometry" />
        </mxCell>
        <mxCell id="xkJ3XI0sNzHQG6LdifNl-2" value="Game&lt;br&gt;Dashboard&lt;br&gt;System" style="text;html=1;align=center;verticalAlign=middle;resizable=0;points=[];autosize=1;strokeColor=none;fillColor=none;labelBackgroundColor=none;fontColor=#393C56;rounded=1;connectable=0;" vertex="1" parent="xkJ3XI0sNzHQG6LdifNl-1">
          <mxGeometry y="20" width="100" height="60" as="geometry" />
        </mxCell>
        <mxCell id="xkJ3XI0sNzHQG6LdifNl-5" style="rounded=1;orthogonalLoop=1;jettySize=auto;html=1;entryX=1;entryY=0.25;entryDx=0;entryDy=0;strokeColor=#E07A5F;fontColor=#393C56;fillColor=#F2CC8F;exitX=0;exitY=0.25;exitDx=0;exitDy=0;" edge="1" parent="1" source="xkJ3XI0sNzHQG6LdifNl-3" target="xkJ3XI0sNzHQG6LdifNl-1">
          <mxGeometry relative="1" as="geometry" />
        </mxCell>
        <mxCell id="xkJ3XI0sNzHQG6LdifNl-10" value="Check License Key" style="edgeLabel;html=1;align=center;verticalAlign=middle;resizable=0;points=[];fontColor=#393C56;" vertex="1" connectable="0" parent="xkJ3XI0sNzHQG6LdifNl-5">
          <mxGeometry x="0.0746" relative="1" as="geometry">
            <mxPoint x="7" as="offset" />
          </mxGeometry>
        </mxCell>
        <mxCell id="xkJ3XI0sNzHQG6LdifNl-18" style="edgeStyle=orthogonalEdgeStyle;rounded=1;orthogonalLoop=1;jettySize=auto;html=1;exitX=0;exitY=0;exitDx=0;exitDy=0;entryX=1;entryY=0;entryDx=0;entryDy=0;strokeColor=#E07A5F;fontColor=#393C56;fillColor=#F2CC8F;" edge="1" parent="1" source="xkJ3XI0sNzHQG6LdifNl-3" target="xkJ3XI0sNzHQG6LdifNl-1">
          <mxGeometry relative="1" as="geometry">
            <Array as="points">
              <mxPoint x="647" y="264.94" />
              <mxPoint x="472" y="264.94" />
            </Array>
          </mxGeometry>
        </mxCell>
        <mxCell id="xkJ3XI0sNzHQG6LdifNl-19" value="Player Auth" style="edgeLabel;html=1;align=center;verticalAlign=middle;resizable=0;points=[];fontColor=#393C56;" vertex="1" connectable="0" parent="xkJ3XI0sNzHQG6LdifNl-18">
          <mxGeometry x="-0.0056" relative="1" as="geometry">
            <mxPoint x="-10" as="offset" />
          </mxGeometry>
        </mxCell>
        <mxCell id="xkJ3XI0sNzHQG6LdifNl-3" value="Game" style="html=1;dashed=0;whiteSpace=wrap;rounded=1;strokeColor=#E07A5F;fontColor=#393C56;fillColor=#F2CC8F;" vertex="1" parent="1">
          <mxGeometry x="647" y="309.94" width="100" height="50" as="geometry" />
        </mxCell>
        <mxCell id="xkJ3XI0sNzHQG6LdifNl-8" style="rounded=1;orthogonalLoop=1;jettySize=auto;html=1;exitX=1;exitY=0.25;exitDx=0;exitDy=0;entryX=0;entryY=0.25;entryDx=0;entryDy=0;strokeColor=#E07A5F;fontColor=#393C56;fillColor=#F2CC8F;" edge="1" parent="1" source="xkJ3XI0sNzHQG6LdifNl-4" target="xkJ3XI0sNzHQG6LdifNl-1">
          <mxGeometry relative="1" as="geometry" />
        </mxCell>
        <mxCell id="xkJ3XI0sNzHQG6LdifNl-12" value="Manage Organizations" style="edgeLabel;html=1;align=center;verticalAlign=middle;resizable=0;points=[];fontColor=#393C56;" vertex="1" connectable="0" parent="xkJ3XI0sNzHQG6LdifNl-8">
          <mxGeometry x="0.0103" y="-1" relative="1" as="geometry">
            <mxPoint as="offset" />
          </mxGeometry>
        </mxCell>
        <mxCell id="xkJ3XI0sNzHQG6LdifNl-13" style="edgeStyle=orthogonalEdgeStyle;rounded=1;orthogonalLoop=1;jettySize=auto;html=1;exitX=1;exitY=0;exitDx=0;exitDy=0;entryX=0;entryY=0;entryDx=0;entryDy=0;strokeColor=#E07A5F;fontColor=#393C56;fillColor=#F2CC8F;" edge="1" parent="1" source="xkJ3XI0sNzHQG6LdifNl-4" target="xkJ3XI0sNzHQG6LdifNl-1">
          <mxGeometry relative="1" as="geometry">
            <Array as="points">
              <mxPoint x="202" y="264.94" />
              <mxPoint x="372" y="264.94" />
            </Array>
          </mxGeometry>
        </mxCell>
        <mxCell id="xkJ3XI0sNzHQG6LdifNl-14" value="Manage Org Keys" style="edgeLabel;html=1;align=center;verticalAlign=middle;resizable=0;points=[];fontColor=#393C56;" vertex="1" connectable="0" parent="xkJ3XI0sNzHQG6LdifNl-13">
          <mxGeometry x="0.0032" y="-1" relative="1" as="geometry">
            <mxPoint x="5" y="-1" as="offset" />
          </mxGeometry>
        </mxCell>
        <mxCell id="xkJ3XI0sNzHQG6LdifNl-4" value="Admin" style="html=1;dashed=0;whiteSpace=wrap;rounded=1;strokeColor=#E07A5F;fontColor=#393C56;fillColor=#F2CC8F;" vertex="1" parent="1">
          <mxGeometry x="102" y="309.94" width="100" height="50" as="geometry" />
        </mxCell>
        <mxCell id="xkJ3XI0sNzHQG6LdifNl-16" style="edgeStyle=orthogonalEdgeStyle;rounded=1;orthogonalLoop=1;jettySize=auto;html=1;exitX=0;exitY=1;exitDx=0;exitDy=0;entryX=1;entryY=1;entryDx=0;entryDy=0;strokeColor=#E07A5F;fontColor=#393C56;fillColor=#F2CC8F;" edge="1" parent="1" source="xkJ3XI0sNzHQG6LdifNl-1" target="xkJ3XI0sNzHQG6LdifNl-4">
          <mxGeometry relative="1" as="geometry">
            <Array as="points">
              <mxPoint x="372" y="394.94" />
              <mxPoint x="202" y="394.94" />
            </Array>
          </mxGeometry>
        </mxCell>
        <mxCell id="xkJ3XI0sNzHQG6LdifNl-17" value="View Org Keys" style="edgeLabel;html=1;align=center;verticalAlign=middle;resizable=0;points=[];fontColor=#393C56;" vertex="1" connectable="0" parent="xkJ3XI0sNzHQG6LdifNl-16">
          <mxGeometry x="-0.0994" relative="1" as="geometry">
            <mxPoint as="offset" />
          </mxGeometry>
        </mxCell>
        <mxCell id="xkJ3XI0sNzHQG6LdifNl-26" style="edgeStyle=orthogonalEdgeStyle;rounded=1;orthogonalLoop=1;jettySize=auto;html=1;exitX=0;exitY=0.75;exitDx=0;exitDy=0;entryX=1;entryY=0.75;entryDx=0;entryDy=0;strokeColor=#E07A5F;fontColor=#393C56;fillColor=#F2CC8F;" edge="1" parent="1" source="xkJ3XI0sNzHQG6LdifNl-22" target="xkJ3XI0sNzHQG6LdifNl-24">
          <mxGeometry relative="1" as="geometry" />
        </mxCell>
        <mxCell id="xkJ3XI0sNzHQG6LdifNl-29" value="Player Data" style="edgeLabel;html=1;align=center;verticalAlign=middle;resizable=0;points=[];fontColor=#393C56;" vertex="1" connectable="0" parent="xkJ3XI0sNzHQG6LdifNl-26">
          <mxGeometry x="-0.051" y="-2" relative="1" as="geometry">
            <mxPoint as="offset" />
          </mxGeometry>
        </mxCell>
        <mxCell id="xkJ3XI0sNzHQG6LdifNl-34" style="rounded=1;orthogonalLoop=1;jettySize=auto;html=1;exitX=0.25;exitY=1;exitDx=0;exitDy=0;entryX=0.25;entryY=0;entryDx=0;entryDy=0;strokeColor=#E07A5F;fontColor=#393C56;fillColor=#F2CC8F;" edge="1" parent="1" source="xkJ3XI0sNzHQG6LdifNl-22" target="xkJ3XI0sNzHQG6LdifNl-32">
          <mxGeometry relative="1" as="geometry" />
        </mxCell>
        <mxCell id="xkJ3XI0sNzHQG6LdifNl-35" value="Query Player Data" style="edgeLabel;html=1;align=center;verticalAlign=middle;resizable=0;points=[];fontColor=#393C56;" vertex="1" connectable="0" parent="xkJ3XI0sNzHQG6LdifNl-34">
          <mxGeometry x="-0.0171" y="2" relative="1" as="geometry">
            <mxPoint x="-5" y="-9" as="offset" />
          </mxGeometry>
        </mxCell>
        <mxCell id="xkJ3XI0sNzHQG6LdifNl-61" style="edgeStyle=orthogonalEdgeStyle;rounded=1;orthogonalLoop=1;jettySize=auto;html=1;exitX=0;exitY=1;exitDx=0;exitDy=0;entryX=1;entryY=1;entryDx=0;entryDy=0;strokeColor=#E07A5F;fontColor=#393C56;fillColor=#F2CC8F;" edge="1" parent="1" source="xkJ3XI0sNzHQG6LdifNl-22" target="xkJ3XI0sNzHQG6LdifNl-24">
          <mxGeometry relative="1" as="geometry">
            <Array as="points">
              <mxPoint x="368" y="554.94" />
              <mxPoint x="228" y="554.94" />
            </Array>
          </mxGeometry>
        </mxCell>
        <mxCell id="xkJ3XI0sNzHQG6LdifNl-62" value="Player Report" style="edgeLabel;html=1;align=center;verticalAlign=middle;resizable=0;points=[];fontColor=#393C56;" vertex="1" connectable="0" parent="xkJ3XI0sNzHQG6LdifNl-61">
          <mxGeometry x="0.0138" y="2" relative="1" as="geometry">
            <mxPoint as="offset" />
          </mxGeometry>
        </mxCell>
        <mxCell id="xkJ3XI0sNzHQG6LdifNl-22" value="1.0" style="swimlane;fontStyle=0;childLayout=stackLayout;horizontal=1;startSize=20;fillColor=#F2CC8F;horizontalStack=0;resizeParent=1;resizeParentMax=0;resizeLast=0;collapsible=0;marginBottom=0;swimlaneFillColor=#ffffff;labelBackgroundColor=none;strokeColor=#E07A5F;fontColor=#393C56;rounded=1;" vertex="1" parent="1">
          <mxGeometry x="368.25" y="484.94" width="105" height="50" as="geometry" />
        </mxCell>
        <mxCell id="xkJ3XI0sNzHQG6LdifNl-23" value="Leveling System" style="text;html=1;align=center;verticalAlign=middle;resizable=0;points=[];autosize=1;strokeColor=none;fillColor=none;labelBackgroundColor=none;fontColor=#393C56;rounded=1;connectable=0;" vertex="1" parent="xkJ3XI0sNzHQG6LdifNl-22">
          <mxGeometry y="20" width="105" height="30" as="geometry" />
        </mxCell>
        <mxCell id="xkJ3XI0sNzHQG6LdifNl-25" style="edgeStyle=orthogonalEdgeStyle;rounded=1;orthogonalLoop=1;jettySize=auto;html=1;exitX=1;exitY=0.25;exitDx=0;exitDy=0;entryX=0;entryY=0.25;entryDx=0;entryDy=0;strokeColor=#E07A5F;fontColor=#393C56;fillColor=#F2CC8F;" edge="1" parent="1" source="xkJ3XI0sNzHQG6LdifNl-24" target="xkJ3XI0sNzHQG6LdifNl-22">
          <mxGeometry relative="1" as="geometry" />
        </mxCell>
        <mxCell id="xkJ3XI0sNzHQG6LdifNl-27" value="Text" style="edgeLabel;html=1;align=center;verticalAlign=middle;resizable=0;points=[];fontColor=#393C56;" vertex="1" connectable="0" parent="xkJ3XI0sNzHQG6LdifNl-25">
          <mxGeometry x="0.1816" y="2" relative="1" as="geometry">
            <mxPoint x="-13" as="offset" />
          </mxGeometry>
        </mxCell>
        <mxCell id="xkJ3XI0sNzHQG6LdifNl-28" value="Player Auth" style="edgeLabel;html=1;align=center;verticalAlign=middle;resizable=0;points=[];fontColor=#393C56;" vertex="1" connectable="0" parent="xkJ3XI0sNzHQG6LdifNl-25">
          <mxGeometry x="0.0429" y="3" relative="1" as="geometry">
            <mxPoint as="offset" />
          </mxGeometry>
        </mxCell>
        <mxCell id="xkJ3XI0sNzHQG6LdifNl-59" style="edgeStyle=orthogonalEdgeStyle;rounded=1;orthogonalLoop=1;jettySize=auto;html=1;exitX=1;exitY=0;exitDx=0;exitDy=0;entryX=0;entryY=0;entryDx=0;entryDy=0;strokeColor=#E07A5F;fontColor=#393C56;fillColor=#F2CC8F;" edge="1" parent="1" source="xkJ3XI0sNzHQG6LdifNl-24" target="xkJ3XI0sNzHQG6LdifNl-22">
          <mxGeometry relative="1" as="geometry" />
        </mxCell>
        <mxCell id="xkJ3XI0sNzHQG6LdifNl-60" value="Player Report Request" style="edgeLabel;html=1;align=center;verticalAlign=middle;resizable=0;points=[];fontColor=#393C56;" vertex="1" connectable="0" parent="xkJ3XI0sNzHQG6LdifNl-59">
          <mxGeometry x="-0.0352" y="1" relative="1" as="geometry">
            <mxPoint as="offset" />
          </mxGeometry>
        </mxCell>
        <mxCell id="xkJ3XI0sNzHQG6LdifNl-24" value="Game" style="html=1;dashed=0;whiteSpace=wrap;rounded=1;strokeColor=#E07A5F;fontColor=#393C56;fillColor=#F2CC8F;" vertex="1" parent="1">
          <mxGeometry x="128.25" y="484.94" width="100" height="50" as="geometry" />
        </mxCell>
        <mxCell id="xkJ3XI0sNzHQG6LdifNl-33" style="rounded=1;orthogonalLoop=1;jettySize=auto;html=1;exitX=0.75;exitY=0;exitDx=0;exitDy=0;entryX=0.75;entryY=1;entryDx=0;entryDy=0;strokeColor=#E07A5F;fontColor=#393C56;fillColor=#F2CC8F;" edge="1" parent="1" source="xkJ3XI0sNzHQG6LdifNl-32" target="xkJ3XI0sNzHQG6LdifNl-22">
          <mxGeometry relative="1" as="geometry" />
        </mxCell>
        <mxCell id="xkJ3XI0sNzHQG6LdifNl-36" value="Player Data" style="edgeLabel;html=1;align=center;verticalAlign=middle;resizable=0;points=[];fontColor=#393C56;" vertex="1" connectable="0" parent="xkJ3XI0sNzHQG6LdifNl-33">
          <mxGeometry x="-0.1822" relative="1" as="geometry">
            <mxPoint as="offset" />
          </mxGeometry>
        </mxCell>
        <mxCell id="xkJ3XI0sNzHQG6LdifNl-32" value="Players Data Store" style="html=1;dashed=0;whiteSpace=wrap;shape=partialRectangle;right=0;rounded=1;strokeColor=#E07A5F;fontColor=#393C56;fillColor=#F2CC8F;" vertex="1" parent="1">
          <mxGeometry x="370.75" y="614.94" width="100" height="30" as="geometry" />
        </mxCell>
        <mxCell id="xkJ3XI0sNzHQG6LdifNl-37" style="edgeStyle=orthogonalEdgeStyle;rounded=1;orthogonalLoop=1;jettySize=auto;html=1;exitX=0;exitY=0.75;exitDx=0;exitDy=0;entryX=1;entryY=0.75;entryDx=0;entryDy=0;strokeColor=#E07A5F;fontColor=#393C56;fillColor=#F2CC8F;" edge="1" parent="1" source="xkJ3XI0sNzHQG6LdifNl-41" target="xkJ3XI0sNzHQG6LdifNl-46">
          <mxGeometry relative="1" as="geometry" />
        </mxCell>
        <mxCell id="xkJ3XI0sNzHQG6LdifNl-38" value="Response" style="edgeLabel;html=1;align=center;verticalAlign=middle;resizable=0;points=[];fontColor=#393C56;" vertex="1" connectable="0" parent="xkJ3XI0sNzHQG6LdifNl-37">
          <mxGeometry x="-0.051" y="-2" relative="1" as="geometry">
            <mxPoint as="offset" />
          </mxGeometry>
        </mxCell>
        <mxCell id="xkJ3XI0sNzHQG6LdifNl-39" style="rounded=1;orthogonalLoop=1;jettySize=auto;html=1;exitX=0.25;exitY=1;exitDx=0;exitDy=0;entryX=0.25;entryY=0;entryDx=0;entryDy=0;strokeColor=#E07A5F;fontColor=#393C56;fillColor=#F2CC8F;" edge="1" parent="1" source="xkJ3XI0sNzHQG6LdifNl-41" target="xkJ3XI0sNzHQG6LdifNl-49">
          <mxGeometry relative="1" as="geometry" />
        </mxCell>
        <mxCell id="xkJ3XI0sNzHQG6LdifNl-40" value="Query Key" style="edgeLabel;html=1;align=center;verticalAlign=middle;resizable=0;points=[];fontColor=#393C56;" vertex="1" connectable="0" parent="xkJ3XI0sNzHQG6LdifNl-39">
          <mxGeometry x="-0.0171" y="2" relative="1" as="geometry">
            <mxPoint x="-7" y="-9" as="offset" />
          </mxGeometry>
        </mxCell>
        <mxCell id="xkJ3XI0sNzHQG6LdifNl-52" style="edgeStyle=orthogonalEdgeStyle;rounded=1;orthogonalLoop=1;jettySize=auto;html=1;exitX=1;exitY=0.75;exitDx=0;exitDy=0;entryX=0;entryY=0.75;entryDx=0;entryDy=0;strokeColor=#E07A5F;fontColor=#393C56;fillColor=#F2CC8F;" edge="1" parent="1" source="xkJ3XI0sNzHQG6LdifNl-41" target="xkJ3XI0sNzHQG6LdifNl-50">
          <mxGeometry relative="1" as="geometry" />
        </mxCell>
        <mxCell id="xkJ3XI0sNzHQG6LdifNl-58" value="Generated Keys" style="edgeLabel;html=1;align=center;verticalAlign=middle;resizable=0;points=[];fontColor=#393C56;" vertex="1" connectable="0" parent="xkJ3XI0sNzHQG6LdifNl-52">
          <mxGeometry x="-0.0357" y="-2" relative="1" as="geometry">
            <mxPoint as="offset" />
          </mxGeometry>
        </mxCell>
        <mxCell id="xkJ3XI0sNzHQG6LdifNl-56" style="edgeStyle=orthogonalEdgeStyle;rounded=1;orthogonalLoop=1;jettySize=auto;html=1;exitX=0;exitY=1;exitDx=0;exitDy=0;entryX=0;entryY=0.5;entryDx=0;entryDy=0;strokeColor=#E07A5F;fontColor=#393C56;fillColor=#F2CC8F;" edge="1" parent="1" source="xkJ3XI0sNzHQG6LdifNl-41" target="xkJ3XI0sNzHQG6LdifNl-49">
          <mxGeometry relative="1" as="geometry">
            <Array as="points">
              <mxPoint x="338.25" y="724.94" />
              <mxPoint x="338.25" y="819.94" />
            </Array>
          </mxGeometry>
        </mxCell>
        <mxCell id="xkJ3XI0sNzHQG6LdifNl-57" value="Add Orgs and Keys" style="edgeLabel;html=1;align=center;verticalAlign=middle;resizable=0;points=[];fontColor=#393C56;" vertex="1" connectable="0" parent="xkJ3XI0sNzHQG6LdifNl-56">
          <mxGeometry x="-0.1222" y="-1" relative="1" as="geometry">
            <mxPoint y="11" as="offset" />
          </mxGeometry>
        </mxCell>
        <mxCell id="xkJ3XI0sNzHQG6LdifNl-41" value="2.0" style="swimlane;fontStyle=0;childLayout=stackLayout;horizontal=1;startSize=20;fillColor=#F2CC8F;horizontalStack=0;resizeParent=1;resizeParentMax=0;resizeLast=0;collapsible=0;marginBottom=0;swimlaneFillColor=#ffffff;labelBackgroundColor=none;strokeColor=#E07A5F;fontColor=#393C56;rounded=1;" vertex="1" parent="1">
          <mxGeometry x="365.75" y="674.94" width="108" height="50" as="geometry" />
        </mxCell>
        <mxCell id="xkJ3XI0sNzHQG6LdifNl-42" value="License System" style="text;html=1;align=center;verticalAlign=middle;resizable=0;points=[];autosize=1;strokeColor=none;fillColor=none;labelBackgroundColor=none;fontColor=#393C56;rounded=1;connectable=0;" vertex="1" parent="xkJ3XI0sNzHQG6LdifNl-41">
          <mxGeometry y="20" width="108" height="30" as="geometry" />
        </mxCell>
        <mxCell id="xkJ3XI0sNzHQG6LdifNl-43" style="edgeStyle=orthogonalEdgeStyle;rounded=1;orthogonalLoop=1;jettySize=auto;html=1;exitX=1;exitY=0.25;exitDx=0;exitDy=0;entryX=0;entryY=0.25;entryDx=0;entryDy=0;strokeColor=#E07A5F;fontColor=#393C56;fillColor=#F2CC8F;" edge="1" parent="1" source="xkJ3XI0sNzHQG6LdifNl-46" target="xkJ3XI0sNzHQG6LdifNl-41">
          <mxGeometry relative="1" as="geometry" />
        </mxCell>
        <mxCell id="xkJ3XI0sNzHQG6LdifNl-44" value="Text" style="edgeLabel;html=1;align=center;verticalAlign=middle;resizable=0;points=[];fontColor=#393C56;" vertex="1" connectable="0" parent="xkJ3XI0sNzHQG6LdifNl-43">
          <mxGeometry x="0.1816" y="2" relative="1" as="geometry">
            <mxPoint x="-13" as="offset" />
          </mxGeometry>
        </mxCell>
        <mxCell id="xkJ3XI0sNzHQG6LdifNl-45" value="Check Key" style="edgeLabel;html=1;align=center;verticalAlign=middle;resizable=0;points=[];fontColor=#393C56;" vertex="1" connectable="0" parent="xkJ3XI0sNzHQG6LdifNl-43">
          <mxGeometry x="0.0429" y="3" relative="1" as="geometry">
            <mxPoint as="offset" />
          </mxGeometry>
        </mxCell>
        <mxCell id="xkJ3XI0sNzHQG6LdifNl-46" value="Game" style="html=1;dashed=0;whiteSpace=wrap;rounded=1;strokeColor=#E07A5F;fontColor=#393C56;fillColor=#F2CC8F;" vertex="1" parent="1">
          <mxGeometry x="125.75" y="674.94" width="100" height="50" as="geometry" />
        </mxCell>
        <mxCell id="xkJ3XI0sNzHQG6LdifNl-47" style="rounded=1;orthogonalLoop=1;jettySize=auto;html=1;exitX=0.75;exitY=0;exitDx=0;exitDy=0;entryX=0.75;entryY=1;entryDx=0;entryDy=0;strokeColor=#E07A5F;fontColor=#393C56;fillColor=#F2CC8F;" edge="1" parent="1" source="xkJ3XI0sNzHQG6LdifNl-49" target="xkJ3XI0sNzHQG6LdifNl-41">
          <mxGeometry relative="1" as="geometry" />
        </mxCell>
        <mxCell id="xkJ3XI0sNzHQG6LdifNl-48" value="License Key" style="edgeLabel;html=1;align=center;verticalAlign=middle;resizable=0;points=[];fontColor=#393C56;" vertex="1" connectable="0" parent="xkJ3XI0sNzHQG6LdifNl-47">
          <mxGeometry x="-0.1822" relative="1" as="geometry">
            <mxPoint as="offset" />
          </mxGeometry>
        </mxCell>
        <mxCell id="xkJ3XI0sNzHQG6LdifNl-49" value="License Data Store" style="html=1;dashed=0;whiteSpace=wrap;shape=partialRectangle;right=0;rounded=1;strokeColor=#E07A5F;fontColor=#393C56;fillColor=#F2CC8F;" vertex="1" parent="1">
          <mxGeometry x="368.25" y="804.94" width="100" height="30" as="geometry" />
        </mxCell>
        <mxCell id="xkJ3XI0sNzHQG6LdifNl-51" style="edgeStyle=orthogonalEdgeStyle;rounded=1;orthogonalLoop=1;jettySize=auto;html=1;exitX=0;exitY=0.25;exitDx=0;exitDy=0;entryX=1;entryY=0.25;entryDx=0;entryDy=0;strokeColor=#E07A5F;fontColor=#393C56;fillColor=#F2CC8F;" edge="1" parent="1" source="xkJ3XI0sNzHQG6LdifNl-50" target="xkJ3XI0sNzHQG6LdifNl-41">
          <mxGeometry relative="1" as="geometry" />
        </mxCell>
        <mxCell id="xkJ3XI0sNzHQG6LdifNl-55" value="Add Organization" style="edgeLabel;html=1;align=center;verticalAlign=middle;resizable=0;points=[];fontColor=#393C56;" vertex="1" connectable="0" parent="xkJ3XI0sNzHQG6LdifNl-51">
          <mxGeometry x="0.0261" y="2" relative="1" as="geometry">
            <mxPoint as="offset" />
          </mxGeometry>
        </mxCell>
        <mxCell id="xkJ3XI0sNzHQG6LdifNl-50" value="Admin" style="html=1;dashed=0;whiteSpace=wrap;rounded=1;strokeColor=#E07A5F;fontColor=#393C56;fillColor=#F2CC8F;" vertex="1" parent="1">
          <mxGeometry x="618.25" y="674.94" width="100" height="50" as="geometry" />
        </mxCell>
      </root>
    </mxGraphModel>
  </diagram>
</mxfile>
